
<svg version="1.1"
     width="650" height="600"
     xmlns="http://www.w3.org/2000/svg">

<rect x="40" y="30" width="41" height="41" fill="rgb(255,255,255)" stroke="rgb(255,255,255)" stroke-width="2" transform="rotate(0, 40, 30)"/>
<rect x="40" y="71" width="41" height="41" fill="rgb(255,255,255)" stroke="rgb(255,255,255)" stroke-width="2" transform="rotate(0, 40, 71)"/>
<rect x="40" y="112" width="41" height="41" fill="rgb(255,255,255)" stroke="rgb(255,255,255)" stroke-width="2" transform="rotate(0, 40, 112)"/>
<rect x="40" y="153" width="41" height="41" fill="rgb(255,255,255)" stroke="rgb(255,255,255)" stroke-width="2" transform="rotate(0, 40, 153)"/>
<rect x="40" y="194" width="41" height="41" fill="rgb(255,255,255)" stroke="rgb(255,255,255)" stroke-width="2" transform="rotate(0, 40, 194)"/>
<rect x="40" y="235" width="41" height="41" fill="rgb(255,255,255)" stroke="rgb(255,255,255)" stroke-width="2" transform="rotate(0, 40, 235)"/>
<rect x="40" y="276" width="41" height="41" fill="rgb(255,255,255)" stroke="rgb(255,255,255)" stroke-width="2" transform="rotate(0, 40, 276)"/>
<rect x="40" y="317" width="41" height="41" fill="rgb(255,255,255)" stroke="rgb(255,255,255)" stroke-width="2" transform="rotate(0, 40, 317)"/>
<rect x="40" y="358" width="41" height="41" fill="rgb(255,255,255)" stroke="rgb(255,255,255)" stroke-width="2" transform="rotate(0, 40, 358)"/>
<rect x="40" y="399" width="41" height="41" fill="rgb(255,255,255)" stroke="rgb(255,255,255)" stroke-width="2" transform="rotate(0, 40, 399)"/>
<rect x="40" y="440" width="41" height="41" fill="rgb(255,255,255)" stroke="rgb(255,255,255)" stroke-width="2" transform="rotate(0, 40, 440)"/>
<rect x="40" y="481" width="41" height="41" fill="rgb(255,255,255)" stroke="rgb(255,255,255)" stroke-width="2" transform="rotate(0, 40, 481)"/>
<rect x="81" y="30" width="41" height="41" fill="rgb(255,255,255)" stroke="rgb(255,255,255)" stroke-width="2" transform="rotate(0, 81, 30)"/>
<rect x="81" y="71" width="41" height="41" fill="rgb(255,255,255)" stroke="rgb(255,255,255)" stroke-width="2" transform="rotate(0, 81, 71)"/>
<rect x="81" y="112" width="41" height="41" fill="rgb(255,255,255)" stroke="rgb(255,255,255)" stroke-width="2" transform="rotate(0, 81, 112)"/>
<rect x="81" y="153" width="41" height="41" fill="rgb(255,255,255)" stroke="rgb(255,255,255)" stroke-width="2" transform="rotate(0, 81, 153)"/>
<rect x="81" y="194" width="41" height="41" fill="rgb(255,255,255)" stroke="rgb(255,255,255)" stroke-width="2" transform="rotate(0, 81, 194)"/>
<rect x="81" y="235" width="41" height="41" fill="rgb(255,255,255)" stroke="rgb(255,255,255)" stroke-width="2" transform="rotate(0, 81, 235)"/>
<rect x="81" y="276" width="41" height="41" fill="rgb(255,255,255)" stroke="rgb(255,255,255)" stroke-width="2" transform="rotate(0, 81, 276)"/>
<rect x="81" y="317" width="41" height="41" fill="rgb(255,255,255)" stroke="rgb(255,255,255)" stroke-width="2" transform="rotate(0, 81, 317)"/>
<rect x="81" y="358" width="41" height="41" fill="rgb(255,255,255)" stroke="rgb(255,255,255)" stroke-width="2" transform="rotate(0, 81, 358)"/>
<rect x="81" y="399" width="41" height="41" fill="rgb(255,255,255)" stroke="rgb(255,255,255)" stroke-width="2" transform="rotate(0, 81, 399)"/>
<rect x="81" y="440" width="41" height="41" fill="rgb(255,255,255)" stroke="rgb(255,255,255)" stroke-width="2" transform="rotate(0, 81, 440)"/>
<rect x="81" y="481" width="41" height="41" fill="rgb(255,255,255)" stroke="rgb(255,255,255)" stroke-width="2" transform="rotate(0, 81, 481)"/>
<rect x="122" y="30" width="41" height="41" fill="rgb(255,255,255)" stroke="rgb(255,255,255)" stroke-width="2" transform="rotate(0, 122, 30)"/>
<rect x="122" y="71" width="41" height="41" fill="rgb(255,255,255)" stroke="rgb(255,255,255)" stroke-width="2" transform="rotate(0, 122, 71)"/>
<rect x="122" y="112" width="41" height="41" fill="rgb(255,255,255)" stroke="rgb(255,255,255)" stroke-width="2" transform="rotate(0, 122, 112)"/>
<rect x="122" y="153" width="41" height="41" fill="rgb(255,255,255)" stroke="rgb(255,255,255)" stroke-width="2" transform="rotate(0, 122, 153)"/>
<rect x="122" y="194" width="41" height="41" fill="rgb(255,255,255)" stroke="rgb(255,255,255)" stroke-width="2" transform="rotate(0, 122, 194)"/>
<rect x="122" y="235" width="41" height="41" fill="rgb(255,255,255)" stroke="rgb(255,255,255)" stroke-width="2" transform="rotate(0, 122, 235)"/>
<rect x="122" y="276" width="41" height="41" fill="rgb(255,255,255)" stroke="rgb(255,255,255)" stroke-width="2" transform="rotate(0, 122, 276)"/>
<rect x="122" y="317" width="41" height="41" fill="rgb(255,255,255)" stroke="rgb(255,255,255)" stroke-width="2" transform="rotate(0, 122, 317)"/>
<rect x="122" y="358" width="41" height="41" fill="rgb(255,255,255)" stroke="rgb(255,255,255)" stroke-width="2" transform="rotate(0, 122, 358)"/>
<rect x="122" y="399" width="41" height="41" fill="rgb(255,255,255)" stroke="rgb(255,255,255)" stroke-width="2" transform="rotate(0, 122, 399)"/>
<rect x="122" y="440" width="41" height="41" fill="rgb(255,255,255)" stroke="rgb(255,255,255)" stroke-width="2" transform="rotate(0, 122, 440)"/>
<rect x="122" y="481" width="41" height="41" fill="rgb(255,255,255)" stroke="rgb(255,255,255)" stroke-width="2" transform="rotate(0, 122, 481)"/>
<rect x="163" y="30" width="41" height="41" fill="rgb(255,255,255)" stroke="rgb(255,255,255)" stroke-width="2" transform="rotate(0, 163, 30)"/>
<rect x="163" y="71" width="41" height="41" fill="rgb(255,255,255)" stroke="rgb(255,255,255)" stroke-width="2" transform="rotate(0, 163, 71)"/>
<rect x="163" y="112" width="41" height="41" fill="rgb(255,255,255)" stroke="rgb(255,255,255)" stroke-width="2" transform="rotate(0, 163, 112)"/>
<rect x="163" y="153" width="41" height="41" fill="rgb(255,255,255)" stroke="rgb(255,255,255)" stroke-width="2" transform="rotate(0, 163, 153)"/>
<rect x="163" y="194" width="41" height="41" fill="rgb(255,255,255)" stroke="rgb(255,255,255)" stroke-width="2" transform="rotate(0, 163, 194)"/>
<rect x="163" y="235" width="41" height="41" fill="rgb(255,255,255)" stroke="rgb(255,255,255)" stroke-width="2" transform="rotate(0, 163, 235)"/>
<rect x="163" y="276" width="41" height="41" fill="rgb(255,255,255)" stroke="rgb(255,255,255)" stroke-width="2" transform="rotate(0, 163, 276)"/>
<rect x="163" y="317" width="41" height="41" fill="rgb(255,255,255)" stroke="rgb(255,255,255)" stroke-width="2" transform="rotate(0, 163, 317)"/>
<rect x="163" y="358" width="41" height="41" fill="rgb(255,255,255)" stroke="rgb(255,255,255)" stroke-width="2" transform="rotate(0, 163, 358)"/>
<rect x="163" y="399" width="41" height="41" fill="rgb(255,255,255)" stroke="rgb(255,255,255)" stroke-width="2" transform="rotate(0, 163, 399)"/>
<rect x="163" y="440" width="41" height="41" fill="rgb(255,255,255)" stroke="rgb(255,255,255)" stroke-width="2" transform="rotate(0, 163, 440)"/>
<rect x="163" y="481" width="41" height="41" fill="rgb(255,255,255)" stroke="rgb(255,255,255)" stroke-width="2" transform="rotate(0, 163, 481)"/>
<rect x="204" y="30" width="41" height="41" fill="rgb(255,255,255)" stroke="rgb(255,255,255)" stroke-width="2" transform="rotate(0, 204, 30)"/>
<rect x="204" y="71" width="41" height="41" fill="rgb(255,255,255)" stroke="rgb(255,255,255)" stroke-width="2" transform="rotate(0, 204, 71)"/>
<rect x="204" y="112" width="41" height="41" fill="rgb(255,255,255)" stroke="rgb(255,255,255)" stroke-width="2" transform="rotate(0, 204, 112)"/>
<rect x="204" y="153" width="41" height="41" fill="rgb(255,255,255)" stroke="rgb(255,255,255)" stroke-width="2" transform="rotate(0, 204, 153)"/>
<rect x="204" y="194" width="41" height="41" fill="rgb(255,255,255)" stroke="rgb(255,255,255)" stroke-width="2" transform="rotate(0, 204, 194)"/>
<rect x="204" y="235" width="41" height="41" fill="rgb(255,255,255)" stroke="rgb(255,255,255)" stroke-width="2" transform="rotate(0, 204, 235)"/>
<rect x="204" y="276" width="41" height="41" fill="rgb(255,255,255)" stroke="rgb(255,255,255)" stroke-width="2" transform="rotate(0, 204, 276)"/>
<rect x="204" y="317" width="41" height="41" fill="rgb(255,255,255)" stroke="rgb(255,255,255)" stroke-width="2" transform="rotate(0, 204, 317)"/>
<rect x="204" y="358" width="41" height="41" fill="rgb(255,255,255)" stroke="rgb(255,255,255)" stroke-width="2" transform="rotate(0, 204, 358)"/>
<rect x="204" y="399" width="41" height="41" fill="rgb(255,255,255)" stroke="rgb(255,255,255)" stroke-width="2" transform="rotate(0, 204, 399)"/>
<rect x="204" y="440" width="41" height="41" fill="rgb(255,255,255)" stroke="rgb(255,255,255)" stroke-width="2" transform="rotate(0, 204, 440)"/>
<rect x="204" y="481" width="41" height="41" fill="rgb(255,255,255)" stroke="rgb(255,255,255)" stroke-width="2" transform="rotate(0, 204, 481)"/>
<rect x="245" y="30" width="41" height="41" fill="rgb(255,255,255)" stroke="rgb(255,255,255)" stroke-width="2" transform="rotate(0, 245, 30)"/>
<rect x="245" y="71" width="41" height="41" fill="rgb(255,255,255)" stroke="rgb(255,255,255)" stroke-width="2" transform="rotate(0, 245, 71)"/>
<rect x="245" y="112" width="41" height="41" fill="rgb(255,255,255)" stroke="rgb(255,255,255)" stroke-width="2" transform="rotate(0, 245, 112)"/>
<rect x="245" y="153" width="41" height="41" fill="rgb(255,255,255)" stroke="rgb(255,255,255)" stroke-width="2" transform="rotate(0, 245, 153)"/>
<rect x="245" y="194" width="41" height="41" fill="rgb(255,255,255)" stroke="rgb(255,255,255)" stroke-width="2" transform="rotate(0, 245, 194)"/>
<rect x="245" y="235" width="41" height="41" fill="rgb(255,255,255)" stroke="rgb(255,255,255)" stroke-width="2" transform="rotate(0, 245, 235)"/>
<rect x="245" y="276" width="41" height="41" fill="rgb(255,255,255)" stroke="rgb(255,255,255)" stroke-width="2" transform="rotate(0, 245, 276)"/>
<rect x="245" y="317" width="41" height="41" fill="rgb(255,255,255)" stroke="rgb(255,255,255)" stroke-width="2" transform="rotate(0, 245, 317)"/>
<rect x="245" y="358" width="41" height="41" fill="rgb(255,255,255)" stroke="rgb(255,255,255)" stroke-width="2" transform="rotate(0, 245, 358)"/>
<rect x="245" y="399" width="41" height="41" fill="rgb(255,255,255)" stroke="rgb(255,255,255)" stroke-width="2" transform="rotate(0, 245, 399)"/>
<rect x="245" y="440" width="41" height="41" fill="rgb(255,255,255)" stroke="rgb(255,255,255)" stroke-width="2" transform="rotate(0, 245, 440)"/>
<rect x="245" y="481" width="41" height="41" fill="rgb(255,255,255)" stroke="rgb(255,255,255)" stroke-width="2" transform="rotate(0, 245, 481)"/>
<rect x="286" y="30" width="41" height="41" fill="rgb(0,249,0)" stroke="rgb(255,255,255)" stroke-width="2" transform="rotate(0, 286, 30)"/>
<rect x="286" y="71" width="41" height="41" fill="rgb(0,234,0)" stroke="rgb(255,255,255)" stroke-width="2" transform="rotate(0, 286, 71)"/>
<rect x="286" y="112" width="41" height="41" fill="rgb(0,244,0)" stroke="rgb(255,255,255)" stroke-width="2" transform="rotate(0, 286, 112)"/>
<rect x="286" y="153" width="41" height="41" fill="rgb(0,244,0)" stroke="rgb(255,255,255)" stroke-width="2" transform="rotate(0, 286, 153)"/>
<rect x="286" y="194" width="41" height="41" fill="rgb(255,255,255)" stroke="rgb(255,255,255)" stroke-width="2" transform="rotate(0, 286, 194)"/>
<rect x="286" y="235" width="41" height="41" fill="rgb(255,255,255)" stroke="rgb(255,255,255)" stroke-width="2" transform="rotate(0, 286, 235)"/>
<rect x="286" y="276" width="41" height="41" fill="rgb(255,255,255)" stroke="rgb(255,255,255)" stroke-width="2" transform="rotate(0, 286, 276)"/>
<rect x="286" y="317" width="41" height="41" fill="rgb(255,255,255)" stroke="rgb(255,255,255)" stroke-width="2" transform="rotate(0, 286, 317)"/>
<rect x="286" y="358" width="41" height="41" fill="rgb(255,255,255)" stroke="rgb(255,255,255)" stroke-width="2" transform="rotate(0, 286, 358)"/>
<rect x="286" y="399" width="41" height="41" fill="rgb(255,255,255)" stroke="rgb(255,255,255)" stroke-width="2" transform="rotate(0, 286, 399)"/>
<rect x="286" y="440" width="41" height="41" fill="rgb(255,255,255)" stroke="rgb(255,255,255)" stroke-width="2" transform="rotate(0, 286, 440)"/>
<rect x="286" y="481" width="41" height="41" fill="rgb(255,255,255)" stroke="rgb(255,255,255)" stroke-width="2" transform="rotate(0, 286, 481)"/>
<rect x="327" y="30" width="41" height="41" fill="rgb(0,208,0)" stroke="rgb(255,255,255)" stroke-width="2" transform="rotate(0, 327, 30)"/>
<rect x="327" y="71" width="41" height="41" fill="rgb(0,67,0)" stroke="rgb(255,255,255)" stroke-width="2" transform="rotate(0, 327, 71)"/>
<rect x="327" y="112" width="41" height="41" fill="rgb(0,36,0)" stroke="rgb(255,255,255)" stroke-width="2" transform="rotate(0, 327, 112)"/>
<rect x="327" y="153" width="41" height="41" fill="rgb(0,239,0)" stroke="rgb(255,255,255)" stroke-width="2" transform="rotate(0, 327, 153)"/>
<rect x="327" y="194" width="41" height="41" fill="rgb(255,255,255)" stroke="rgb(255,255,255)" stroke-width="2" transform="rotate(0, 327, 194)"/>
<rect x="327" y="235" width="41" height="41" fill="rgb(255,255,255)" stroke="rgb(255,255,255)" stroke-width="2" transform="rotate(0, 327, 235)"/>
<rect x="327" y="276" width="41" height="41" fill="rgb(255,255,255)" stroke="rgb(255,255,255)" stroke-width="2" transform="rotate(0, 327, 276)"/>
<rect x="327" y="317" width="41" height="41" fill="rgb(255,255,255)" stroke="rgb(255,255,255)" stroke-width="2" transform="rotate(0, 327, 317)"/>
<rect x="327" y="358" width="41" height="41" fill="rgb(255,255,255)" stroke="rgb(255,255,255)" stroke-width="2" transform="rotate(0, 327, 358)"/>
<rect x="327" y="399" width="41" height="41" fill="rgb(255,255,255)" stroke="rgb(255,255,255)" stroke-width="2" transform="rotate(0, 327, 399)"/>
<rect x="327" y="440" width="41" height="41" fill="rgb(255,255,255)" stroke="rgb(255,255,255)" stroke-width="2" transform="rotate(0, 327, 440)"/>
<rect x="327" y="481" width="41" height="41" fill="rgb(255,255,255)" stroke="rgb(255,255,255)" stroke-width="2" transform="rotate(0, 327, 481)"/>
<rect x="368" y="30" width="41" height="41" fill="rgb(0,218,0)" stroke="rgb(255,255,255)" stroke-width="2" transform="rotate(0, 368, 30)"/>
<rect x="368" y="71" width="41" height="41" fill="rgb(0,78,0)" stroke="rgb(255,255,255)" stroke-width="2" transform="rotate(0, 368, 71)"/>
<rect x="368" y="112" width="41" height="41" fill="rgb(0,176,0)" stroke="rgb(255,255,255)" stroke-width="2" transform="rotate(0, 368, 112)"/>
<rect x="368" y="153" width="41" height="41" fill="rgb(0,223,0)" stroke="rgb(255,255,255)" stroke-width="2" transform="rotate(0, 368, 153)"/>
<rect x="368" y="194" width="41" height="41" fill="rgb(0,187,0)" stroke="rgb(255,255,255)" stroke-width="2" transform="rotate(0, 368, 194)"/>
<rect x="368" y="235" width="41" height="41" fill="rgb(255,255,255)" stroke="rgb(255,255,255)" stroke-width="2" transform="rotate(0, 368, 235)"/>
<rect x="368" y="276" width="41" height="41" fill="rgb(255,255,255)" stroke="rgb(255,255,255)" stroke-width="2" transform="rotate(0, 368, 276)"/>
<rect x="368" y="317" width="41" height="41" fill="rgb(255,255,255)" stroke="rgb(255,255,255)" stroke-width="2" transform="rotate(0, 368, 317)"/>
<rect x="368" y="358" width="41" height="41" fill="rgb(255,255,255)" stroke="rgb(255,255,255)" stroke-width="2" transform="rotate(0, 368, 358)"/>
<rect x="368" y="399" width="41" height="41" fill="rgb(255,255,255)" stroke="rgb(255,255,255)" stroke-width="2" transform="rotate(0, 368, 399)"/>
<rect x="368" y="440" width="41" height="41" fill="rgb(255,255,255)" stroke="rgb(255,255,255)" stroke-width="2" transform="rotate(0, 368, 440)"/>
<rect x="368" y="481" width="41" height="41" fill="rgb(255,255,255)" stroke="rgb(255,255,255)" stroke-width="2" transform="rotate(0, 368, 481)"/>
<rect x="409" y="30" width="41" height="41" fill="rgb(0,239,0)" stroke="rgb(255,255,255)" stroke-width="2" transform="rotate(0, 409, 30)"/>
<rect x="409" y="71" width="41" height="41" fill="rgb(0,192,0)" stroke="rgb(255,255,255)" stroke-width="2" transform="rotate(0, 409, 71)"/>
<rect x="409" y="112" width="41" height="41" fill="rgb(0,145,0)" stroke="rgb(255,255,255)" stroke-width="2" transform="rotate(0, 409, 112)"/>
<rect x="409" y="153" width="41" height="41" fill="rgb(0,0,0)" stroke="rgb(255,255,255)" stroke-width="2" transform="rotate(0, 409, 153)"/>
<rect x="409" y="194" width="41" height="41" fill="rgb(0,145,0)" stroke="rgb(255,255,255)" stroke-width="2" transform="rotate(0, 409, 194)"/>
<rect x="409" y="235" width="41" height="41" fill="rgb(255,255,255)" stroke="rgb(255,255,255)" stroke-width="2" transform="rotate(0, 409, 235)"/>
<rect x="409" y="276" width="41" height="41" fill="rgb(255,255,255)" stroke="rgb(255,255,255)" stroke-width="2" transform="rotate(0, 409, 276)"/>
<rect x="409" y="317" width="41" height="41" fill="rgb(255,255,255)" stroke="rgb(255,255,255)" stroke-width="2" transform="rotate(0, 409, 317)"/>
<rect x="409" y="358" width="41" height="41" fill="rgb(255,255,255)" stroke="rgb(255,255,255)" stroke-width="2" transform="rotate(0, 409, 358)"/>
<rect x="409" y="399" width="41" height="41" fill="rgb(255,255,255)" stroke="rgb(255,255,255)" stroke-width="2" transform="rotate(0, 409, 399)"/>
<rect x="409" y="440" width="41" height="41" fill="rgb(255,255,255)" stroke="rgb(255,255,255)" stroke-width="2" transform="rotate(0, 409, 440)"/>
<rect x="409" y="481" width="41" height="41" fill="rgb(255,255,255)" stroke="rgb(255,255,255)" stroke-width="2" transform="rotate(0, 409, 481)"/>
<rect x="450" y="30" width="41" height="41" fill="rgb(0,213,0)" stroke="rgb(255,255,255)" stroke-width="2" transform="rotate(0, 450, 30)"/>
<rect x="450" y="71" width="41" height="41" fill="rgb(0,150,0)" stroke="rgb(255,255,255)" stroke-width="2" transform="rotate(0, 450, 71)"/>
<rect x="450" y="112" width="41" height="41" fill="rgb(0,197,0)" stroke="rgb(255,255,255)" stroke-width="2" transform="rotate(0, 450, 112)"/>
<rect x="450" y="153" width="41" height="41" fill="rgb(0,171,0)" stroke="rgb(255,255,255)" stroke-width="2" transform="rotate(0, 450, 153)"/>
<rect x="450" y="194" width="41" height="41" fill="rgb(0,244,0)" stroke="rgb(255,255,255)" stroke-width="2" transform="rotate(0, 450, 194)"/>
<rect x="450" y="235" width="41" height="41" fill="rgb(255,255,255)" stroke="rgb(255,255,255)" stroke-width="2" transform="rotate(0, 450, 235)"/>
<rect x="450" y="276" width="41" height="41" fill="rgb(255,255,255)" stroke="rgb(255,255,255)" stroke-width="2" transform="rotate(0, 450, 276)"/>
<rect x="450" y="317" width="41" height="41" fill="rgb(255,255,255)" stroke="rgb(255,255,255)" stroke-width="2" transform="rotate(0, 450, 317)"/>
<rect x="450" y="358" width="41" height="41" fill="rgb(255,255,255)" stroke="rgb(255,255,255)" stroke-width="2" transform="rotate(0, 450, 358)"/>
<rect x="450" y="399" width="41" height="41" fill="rgb(255,255,255)" stroke="rgb(255,255,255)" stroke-width="2" transform="rotate(0, 450, 399)"/>
<rect x="450" y="440" width="41" height="41" fill="rgb(255,255,255)" stroke="rgb(255,255,255)" stroke-width="2" transform="rotate(0, 450, 440)"/>
<rect x="450" y="481" width="41" height="41" fill="rgb(255,255,255)" stroke="rgb(255,255,255)" stroke-width="2" transform="rotate(0, 450, 481)"/>
<rect x="491" y="30" width="41" height="41" fill="rgb(0,249,0)" stroke="rgb(255,255,255)" stroke-width="2" transform="rotate(0, 491, 30)"/>
<rect x="491" y="71" width="41" height="41" fill="rgb(255,255,255)" stroke="rgb(255,255,255)" stroke-width="2" transform="rotate(0, 491, 71)"/>
<rect x="491" y="112" width="41" height="41" fill="rgb(0,244,0)" stroke="rgb(255,255,255)" stroke-width="2" transform="rotate(0, 491, 112)"/>
<rect x="491" y="153" width="41" height="41" fill="rgb(0,249,0)" stroke="rgb(255,255,255)" stroke-width="2" transform="rotate(0, 491, 153)"/>
<rect x="491" y="194" width="41" height="41" fill="rgb(255,255,255)" stroke="rgb(255,255,255)" stroke-width="2" transform="rotate(0, 491, 194)"/>
<rect x="491" y="235" width="41" height="41" fill="rgb(255,255,255)" stroke="rgb(255,255,255)" stroke-width="2" transform="rotate(0, 491, 235)"/>
<rect x="491" y="276" width="41" height="41" fill="rgb(255,255,255)" stroke="rgb(255,255,255)" stroke-width="2" transform="rotate(0, 491, 276)"/>
<rect x="491" y="317" width="41" height="41" fill="rgb(255,255,255)" stroke="rgb(255,255,255)" stroke-width="2" transform="rotate(0, 491, 317)"/>
<rect x="491" y="358" width="41" height="41" fill="rgb(255,255,255)" stroke="rgb(255,255,255)" stroke-width="2" transform="rotate(0, 491, 358)"/>
<rect x="491" y="399" width="41" height="41" fill="rgb(255,255,255)" stroke="rgb(255,255,255)" stroke-width="2" transform="rotate(0, 491, 399)"/>
<rect x="491" y="440" width="41" height="41" fill="rgb(255,255,255)" stroke="rgb(255,255,255)" stroke-width="2" transform="rotate(0, 491, 440)"/>
<rect x="491" y="481" width="41" height="41" fill="rgb(255,255,255)" stroke="rgb(255,255,255)" stroke-width="2" transform="rotate(0, 491, 481)"/>
<line x1="40" x2="40" y1="30" y2="530" stroke="rgb(200,200,200)" stroke-width="1" transform="rotate(0, 40, 30)"/>
<line x1="40" x2="540" y1="530" y2="530" stroke="rgb(200,200,200)" stroke-width="1" transform="rotate(0, 40, 530)"/>
<text x="5" y="414" font-size="15" transform="rotate(90, 5, 414)">bill_depth_mm</text>
<text x="418" y="565" font-size="15" transform="rotate(0, 418, 565)">bill_length_mm</text>
<line x1="40" x2="30" y1="30" y2="30" stroke="rgb(200,200,200)" stroke-width="1" transform="rotate(0, 40, 30)"/>
<text x="20" y="20" font-size="15" transform="rotate(0, 20, 20)">21.5</text>
<line x1="40" x2="30" y1="71" y2="71" stroke="rgb(200,200,200)" stroke-width="1" transform="rotate(0, 40, 71)"/>
<text x="20" y="61" font-size="15" transform="rotate(0, 20, 61)">20.5</text>
<line x1="40" x2="30" y1="112" y2="112" stroke="rgb(200,200,200)" stroke-width="1" transform="rotate(0, 40, 112)"/>
<text x="20" y="102" font-size="15" transform="rotate(0, 20, 102)">19.5</text>
<line x1="40" x2="30" y1="153" y2="153" stroke="rgb(200,200,200)" stroke-width="1" transform="rotate(0, 40, 153)"/>
<text x="20" y="143" font-size="15" transform="rotate(0, 20, 143)">18.5</text>
<line x1="40" x2="30" y1="194" y2="194" stroke="rgb(200,200,200)" stroke-width="1" transform="rotate(0, 40, 194)"/>
<text x="20" y="184" font-size="15" transform="rotate(0, 20, 184)">17.5</text>
<line x1="40" x2="30" y1="235" y2="235" stroke="rgb(200,200,200)" stroke-width="1" transform="rotate(0, 40, 235)"/>
<text x="20" y="225" font-size="15" transform="rotate(0, 20, 225)">16.5</text>
<line x1="40" x2="30" y1="276" y2="276" stroke="rgb(200,200,200)" stroke-width="1" transform="rotate(0, 40, 276)"/>
<text x="20" y="266" font-size="15" transform="rotate(0, 20, 266)">15.5</text>
<line x1="40" x2="30" y1="317" y2="317" stroke="rgb(200,200,200)" stroke-width="1" transform="rotate(0, 40, 317)"/>
<text x="20" y="307" font-size="15" transform="rotate(0, 20, 307)">14.5</text>
<line x1="40" x2="30" y1="358" y2="358" stroke="rgb(200,200,200)" stroke-width="1" transform="rotate(0, 40, 358)"/>
<text x="20" y="348" font-size="15" transform="rotate(0, 20, 348)">13.5</text>
<line x1="40" x2="30" y1="399" y2="399" stroke="rgb(200,200,200)" stroke-width="1" transform="rotate(0, 40, 399)"/>
<text x="20" y="389" font-size="15" transform="rotate(0, 20, 389)">12.5</text>
<line x1="40" x2="30" y1="440" y2="440" stroke="rgb(200,200,200)" stroke-width="1" transform="rotate(0, 40, 440)"/>
<text x="20" y="430" font-size="15" transform="rotate(0, 20, 430)">11.5</text>
<line x1="40" x2="30" y1="481" y2="481" stroke="rgb(200,200,200)" stroke-width="1" transform="rotate(0, 40, 481)"/>
<text x="20" y="471" font-size="15" transform="rotate(0, 20, 471)">10.5</text>
<line x1="40" x2="40" y1="530" y2="540" stroke="rgb(200,200,200)" stroke-width="1" transform="rotate(0, 40, 530)"/>
<text x="40" y="535" font-size="15" transform="rotate(270, 40, 535)">0.0</text>
<line x1="81" x2="81" y1="530" y2="540" stroke="rgb(200,200,200)" stroke-width="1" transform="rotate(0, 81, 530)"/>
<text x="81" y="535" font-size="15" transform="rotate(270, 81, 535)">4.97</text>
<line x1="122" x2="122" y1="530" y2="540" stroke="rgb(200,200,200)" stroke-width="1" transform="rotate(0, 122, 530)"/>
<text x="122" y="535" font-size="15" transform="rotate(270, 122, 535)">9.93</text>
<line x1="163" x2="163" y1="530" y2="540" stroke="rgb(200,200,200)" stroke-width="1" transform="rotate(0, 163, 530)"/>
<text x="163" y="535" font-size="15" transform="rotate(270, 163, 535)">14.9</text>
<line x1="204" x2="204" y1="530" y2="540" stroke="rgb(200,200,200)" stroke-width="1" transform="rotate(0, 204, 530)"/>
<text x="204" y="535" font-size="15" transform="rotate(270, 204, 535)">19.87</text>
<line x1="245" x2="245" y1="530" y2="540" stroke="rgb(200,200,200)" stroke-width="1" transform="rotate(0, 245, 530)"/>
<text x="245" y="535" font-size="15" transform="rotate(270, 245, 535)">24.83</text>
<line x1="286" x2="286" y1="530" y2="540" stroke="rgb(200,200,200)" stroke-width="1" transform="rotate(0, 286, 530)"/>
<text x="286" y="535" font-size="15" transform="rotate(270, 286, 535)">29.8</text>
<line x1="327" x2="327" y1="530" y2="540" stroke="rgb(200,200,200)" stroke-width="1" transform="rotate(0, 327, 530)"/>
<text x="327" y="535" font-size="15" transform="rotate(270, 327, 535)">34.77</text>
<line x1="368" x2="368" y1="530" y2="540" stroke="rgb(200,200,200)" stroke-width="1" transform="rotate(0, 368, 530)"/>
<text x="368" y="535" font-size="15" transform="rotate(270, 368, 535)">39.73</text>
<line x1="409" x2="409" y1="530" y2="540" stroke="rgb(200,200,200)" stroke-width="1" transform="rotate(0, 409, 530)"/>
<text x="409" y="535" font-size="15" transform="rotate(270, 409, 535)">44.7</text>
<line x1="450" x2="450" y1="530" y2="540" stroke="rgb(200,200,200)" stroke-width="1" transform="rotate(0, 450, 530)"/>
<text x="450" y="535" font-size="15" transform="rotate(270, 450, 535)">49.67</text>
<line x1="491" x2="491" y1="530" y2="540" stroke="rgb(200,200,200)" stroke-width="1" transform="rotate(0, 491, 530)"/>
<text x="491" y="535" font-size="15" transform="rotate(270, 491, 535)">54.63</text>
<line x1="532" x2="532" y1="530" y2="540" stroke="rgb(200,200,200)" stroke-width="1" transform="rotate(0, 532, 530)"/>
<text x="532" y="535" font-size="15" transform="rotate(270, 532, 535)">59.6</text>

</svg>
